<svg width="17" height="24" viewBox="0 0 17 24" fill="none" xmlns="http://www.w3.org/2000/svg">
<g clip-path="url(#clip0_9:16)">
<path d="M12.3984 8.0016C13.4379 7.9704 14.4244 7.53553 15.1487 6.7892C15.8729 6.04287 16.278 5.04378 16.278 4.0038C16.278 2.96382 15.8729 1.96473 15.1487 1.2184C14.4244 0.47207 13.4379 0.0371981 12.3984 0.00600052H4.40161C3.36209 0.0371981 2.3756 0.47207 1.65134 1.2184C0.927072 1.96473 0.521988 2.96382 0.521988 4.0038C0.521988 5.04378 0.927072 6.04287 1.65134 6.7892C2.3756 7.53553 3.36209 7.9704 4.40161 8.0016C3.353 8.01977 2.35349 8.44908 1.61835 9.19706C0.883215 9.94504 0.471283 10.9518 0.471283 12.0006C0.471283 13.0494 0.883215 14.0562 1.61835 14.8041C2.35349 15.5521 3.353 15.9814 4.40161 15.9996C3.35813 16.0252 2.36598 16.4576 1.637 17.2047C0.908024 17.9518 0.499974 18.9542 0.499974 19.998C0.499974 21.0418 0.908024 22.0442 1.637 22.7913C2.36598 23.5384 3.35813 23.9708 4.40161 23.9964C5.46206 23.9958 6.47888 23.5741 7.22862 22.8242C7.97837 22.0742 8.39969 21.0573 8.40001 19.9968V8.0016H12.3984Z" fill="#C9D1D9"/>
<path d="M12.3984 15.9984C14.6066 15.9984 16.3968 14.2083 16.3968 12C16.3968 9.79174 14.6066 8.0016 12.3984 8.0016C10.1901 8.0016 8.39999 9.79174 8.39999 12C8.39999 14.2083 10.1901 15.9984 12.3984 15.9984Z" fill="#C9D1D9"/>
</g>
<defs>
<clipPath id="clip0_9:16">
<rect width="16.8" height="24" fill="white"/>
</clipPath>
</defs>
</svg>
