<svg width="29" height="24" viewBox="0 0 29 24" fill="none" xmlns="http://www.w3.org/2000/svg">
<g clip-path="url(#clip0_15:2)">
<path d="M4.8 0C3.52696 0 2.30606 0.505713 1.40589 1.40589C0.505713 2.30606 0 3.52696 0 4.8V5.2824L14.4 13.0368L28.8 5.2848V4.8C28.8 3.52696 28.2943 2.30606 27.3941 1.40589C26.4939 0.505713 25.273 0 24 0H4.8Z" fill="#C9D1D9"/>
<path d="M28.8 8.0088L14.9688 15.456C14.794 15.5501 14.5985 15.5994 14.4 15.5994C14.2015 15.5994 14.006 15.5501 13.8312 15.456L0 8.0088V19.2C0 20.473 0.505713 21.6939 1.40589 22.5941C2.30606 23.4943 3.52696 24 4.8 24H24C25.273 24 26.4939 23.4943 27.3941 22.5941C28.2943 21.6939 28.8 20.473 28.8 19.2V8.0088Z" fill="#C9D1D9"/>
</g>
<defs>
<clipPath id="clip0_15:2">
<rect width="28.8" height="24" fill="white"/>
</clipPath>
</defs>
</svg>
