<svg width="24" height="24" viewBox="0 0 24 24" fill="none" xmlns="http://www.w3.org/2000/svg">
<path d="M16.8 8.4V6H12V12.6C11.496 12.228 10.884 12 10.2 12C9.40435 12 8.64129 12.3161 8.07868 12.8787C7.51607 13.4413 7.2 14.2044 7.2 15C7.2 15.7957 7.51607 16.5587 8.07868 17.1213C8.64129 17.6839 9.40435 18 10.2 18C10.9956 18 11.7587 17.6839 12.3213 17.1213C12.8839 16.5587 13.2 15.7957 13.2 15V8.4H16.8ZM12 0C13.5759 0 15.1363 0.310389 16.5922 0.913446C18.0481 1.5165 19.371 2.40042 20.4853 3.51472C21.5996 4.62902 22.4835 5.95189 23.0866 7.4078C23.6896 8.86371 24 10.4241 24 12C24 15.1826 22.7357 18.2348 20.4853 20.4853C18.2348 22.7357 15.1826 24 12 24C10.4241 24 8.86371 23.6896 7.4078 23.0866C5.95189 22.4835 4.62902 21.5996 3.51472 20.4853C1.26428 18.2348 0 15.1826 0 12C0 8.8174 1.26428 5.76516 3.51472 3.51472C5.76516 1.26428 8.8174 0 12 0V0Z" fill="#C9D1D9"/>
</svg>
