<svg width="24" height="24" viewBox="0 0 24 24" fill="none" xmlns="http://www.w3.org/2000/svg">
<path d="M12 0.545455C5.67443 0.545455 0.545456 5.67443 0.545456 12C0.545456 18.3256 5.67443 23.4545 12 23.4545C18.3256 23.4545 23.4545 18.3256 23.4545 12C23.4545 5.67443 18.3256 0.545455 12 0.545455ZM17.5048 9.17983C17.5125 9.3 17.5125 9.42529 17.5125 9.54801C17.5125 13.3014 14.654 17.625 9.4304 17.625C7.8196 17.625 6.32642 17.1571 5.06847 16.3517C5.29858 16.3773 5.51847 16.3875 5.7537 16.3875C7.08324 16.3875 8.3054 15.9375 9.27955 15.1756C8.03182 15.15 6.98352 14.3318 6.62557 13.2068C7.06279 13.2707 7.45654 13.2707 7.90654 13.1557C7.26407 13.0252 6.68661 12.6762 6.27226 12.1682C5.8579 11.6602 5.63221 11.0243 5.63352 10.3688V10.333C6.00938 10.5452 6.45171 10.6756 6.91449 10.6935C6.52545 10.4342 6.2064 10.0829 5.98563 9.67082C5.76485 9.25871 5.64918 8.79849 5.64887 8.33097C5.64887 7.80171 5.78693 7.31847 6.03495 6.89915C6.74805 7.777 7.63789 8.49497 8.64664 9.00639C9.6554 9.51781 10.7605 9.81125 11.8901 9.86761C11.4886 7.93722 12.9307 6.375 14.6642 6.375C15.4824 6.375 16.2188 6.71761 16.7378 7.26989C17.3795 7.14972 17.9932 6.90938 18.5403 6.58722C18.3281 7.24432 17.8832 7.79915 17.2926 8.14943C17.8653 8.08807 18.4176 7.92955 18.929 7.7071C18.5429 8.27472 18.0597 8.77841 17.5048 9.17983V9.17983Z" fill="#C9D1D9"/>
</svg>
